<?xml version="1.0" encoding="UTF-8"?><svg xmlns="http://www.w3.org/2000/svg" xmlns:xlink="http://www.w3.org/1999/xlink" viewBox="0 0 1017.09 437.77"><defs><style>.cls-1{fill:url(#Degradado_sin_nombre_13);}.cls-2{fill:#fff;}.cls-3{fill:url(#Degradado_sin_nombre_11);}.cls-3,.cls-4,.cls-5,.cls-6,.cls-7{opacity:.92;}.cls-8{fill:url(#Degradado_sin_nombre_1074);opacity:.68;}.cls-8,.cls-9,.cls-10,.cls-11,.cls-12{mix-blend-mode:overlay;}.cls-4{fill:url(#Degradado_sin_nombre_10);}.cls-13{fill:url(#Degradado_sin_nombre_14);opacity:.55;}.cls-14{fill:url(#Degradado_sin_nombre_15);}.cls-15{isolation:isolate;}.cls-16{stroke:url(#Degradado_sin_nombre_5-2);}.cls-16,.cls-17,.cls-18,.cls-19,.cls-20{fill:none;}.cls-16,.cls-18{opacity:.63;stroke-width:2.13px;}.cls-16,.cls-18,.cls-19,.cls-20{stroke-miterlimit:10;}.cls-5{fill:url(#Degradado_sin_nombre_10-2);}.cls-9{fill:url(#Unnamed_Pattern_3);opacity:.47;}.cls-18{stroke:url(#Degradado_sin_nombre_5);}.cls-10{fill:url(#Unnamed_Pattern_4);opacity:.59;}.cls-21{fill:url(#Degradado_sin_nombre_9);}.cls-11{fill:url(#Degradado_sin_nombre_1074-2);}.cls-11,.cls-22{opacity:.78;}.cls-6{fill:url(#Degradado_sin_nombre_11-2);}.cls-22{fill:url(#Degradado_sin_nombre_12);}.cls-19{stroke:#fff;}.cls-19,.cls-20{stroke-width:.91px;}.cls-20{stroke:#310073;}.cls-7{fill:url(#Degradado_sin_nombre_4);}.cls-23{fill:url(#Degradado_sin_nombre_14-2);}</style><linearGradient id="Degradado_sin_nombre_14" x1="522.47" y1="83.02" x2="540.21" y2="233.48" gradientUnits="userSpaceOnUse"><stop offset="0" stop-color="#000773"/><stop offset="1" stop-color="#000336"/></linearGradient><pattern id="Unnamed_Pattern_4" x="0" y="0" width="7.83" height="10" patternTransform="translate(-14915.73 -16743.32) rotate(-179.26) scale(.93)" patternUnits="userSpaceOnUse" viewBox="0 0 7.83 10"><rect class="cls-17" y="0" width="7.83" height="10"/><circle class="cls-2" cx="5.42" cy="11" r="1.5"/><circle class="cls-2" cx="1.5" cy="6" r="1.5"/><circle class="cls-2" cx="5.42" cy="1" r="1.5"/></pattern><linearGradient id="Degradado_sin_nombre_14-2" x1="448.98" y1="166.1" x2="481.31" y2="285.71" xlink:href="#Degradado_sin_nombre_14"/><linearGradient id="Degradado_sin_nombre_9" x1="575.77" y1="194.53" x2="623.97" y2="324.85" gradientUnits="userSpaceOnUse"><stop offset="0" stop-color="#00287a"/><stop offset=".15" stop-color="#002268"/><stop offset=".51" stop-color="#001846"/><stop offset=".81" stop-color="#001230"/><stop offset="1" stop-color="#001029"/></linearGradient><linearGradient id="Degradado_sin_nombre_13" x1="486.31" y1="161.8" x2="568.11" y2="352.58" gradientUnits="userSpaceOnUse"><stop offset="0" stop-color="#7200e2"/><stop offset=".24" stop-color="#3403a8"/><stop offset=".42" stop-color="#0e0583"/><stop offset=".51" stop-color="#000676"/><stop offset="1" stop-color="#000676" stop-opacity="0"/></linearGradient><linearGradient id="Degradado_sin_nombre_12" x1="740.86" y1="99.47" x2="789.76" y2="410.25" gradientUnits="userSpaceOnUse"><stop offset="0" stop-color="#7200e2"/><stop offset=".51" stop-color="#000676"/><stop offset="1" stop-color="#000676" stop-opacity="0"/></linearGradient><linearGradient id="Degradado_sin_nombre_1074" x1="559.06" y1="173.86" x2="599.08" y2="313.94" gradientUnits="userSpaceOnUse"><stop offset="0" stop-color="#fff"/><stop offset="1" stop-color="#fff" stop-opacity="0"/></linearGradient><linearGradient id="Degradado_sin_nombre_10" x1="598.35" y1="236.43" x2="751.2" y2="461.64" gradientUnits="userSpaceOnUse"><stop offset="0" stop-color="#7200e2"/><stop offset=".29" stop-color="#7200e2"/><stop offset=".35" stop-color="#6e00de" stop-opacity=".97"/><stop offset=".45" stop-color="#6400d5" stop-opacity=".88"/><stop offset=".57" stop-color="#5401c6" stop-opacity=".74"/><stop offset=".7" stop-color="#3e02b1" stop-opacity=".55"/><stop offset=".85" stop-color="#220496" stop-opacity=".3"/><stop offset="1" stop-color="#000676" stop-opacity="0"/></linearGradient><linearGradient id="Degradado_sin_nombre_1074-2" x1="662.58" y1="205.37" x2="711.65" y2="277.67" xlink:href="#Degradado_sin_nombre_1074"/><linearGradient id="Degradado_sin_nombre_5" x1="606.21" y1="242.53" x2="606.21" y2="380.15" gradientTransform="translate(26.59 -38.34) rotate(3.74)" gradientUnits="userSpaceOnUse"><stop offset="0" stop-color="#a700f4" stop-opacity=".1"/><stop offset=".35" stop-color="#7200e2"/><stop offset="1" stop-color="#9c45f3"/></linearGradient><linearGradient id="Degradado_sin_nombre_11" x1="680.42" y1="144.6" x2="680.42" y2="157.29" gradientTransform="translate(724.6 -541.57) rotate(80.81)" gradientUnits="userSpaceOnUse"><stop offset="0" stop-color="#993ff2"/><stop offset="1" stop-color="#5200b8"/></linearGradient><linearGradient id="Degradado_sin_nombre_4" x1="302.53" y1="259.21" x2="302.53" y2="287.83" gradientUnits="userSpaceOnUse"><stop offset="0" stop-color="#7200e2"/><stop offset=".3" stop-color="#4402b6"/><stop offset=".6" stop-color="#1f0493"/><stop offset=".83" stop-color="#08057d"/><stop offset=".98" stop-color="#000676"/></linearGradient><linearGradient id="Degradado_sin_nombre_11-2" x1="509.62" y1="255.84" x2="509.62" y2="279.61" gradientTransform="translate(691.12 -279.3) rotate(80.81)" xlink:href="#Degradado_sin_nombre_11"/><linearGradient id="Degradado_sin_nombre_10-2" x1="583.69" y1="92.33" x2="583.69" y2="133.01" xlink:href="#Degradado_sin_nombre_10"/><pattern id="Unnamed_Pattern_3" x="0" y="0" width="18.99" height="18.74" patternTransform="translate(139.13 -1511.44)" patternUnits="userSpaceOnUse" viewBox="0 0 18.99 18.74"><rect class="cls-17" width="18.99" height="18.74"/><polygon class="cls-2" points="19 18.74 0 24.99 0 22.99 19 16.74 19 18.74"/><polygon class="cls-2" points="0 18.74 -18.99 24.99 -18.99 22.99 0 16.74 0 18.74"/><polygon class="cls-2" points="19 12.49 0 18.74 0 16.74 19 10.49 19 12.49"/><polygon class="cls-2" points="0 12.49 -18.99 18.74 -18.99 16.74 0 10.49 0 12.49"/><polygon class="cls-2" points="19 6.24 0 12.49 0 10.49 19 4.24 19 6.24"/><polygon class="cls-2" points="0 6.24 -18.99 12.49 -18.99 10.49 0 4.24 0 6.24"/><polygon class="cls-2" points="19 0 0 6.25 0 4.25 19 -2 19 0"/><polygon class="cls-2" points="0 0 -18.99 6.25 -18.99 4.25 0 -2 0 0"/></pattern><radialGradient id="Degradado_sin_nombre_15" cx="235.71" cy="36.78" fx="235.71" fy="36.78" r="28.74" gradientTransform="translate(0 7.7) scale(1 .79)" gradientUnits="userSpaceOnUse"><stop offset="0" stop-color="#000336"/><stop offset="1" stop-color="#000336"/></radialGradient><linearGradient id="Degradado_sin_nombre_5-2" x1="99.95" y1="86.49" x2="138.24" y2="86.49" gradientTransform="matrix(1,0,0,1,0,0)" xlink:href="#Degradado_sin_nombre_5"/></defs><g class="cls-15"><g id="Layer_2"><g id="Background"><path class="cls-13" d="m110.25,280.07c30.63,34.49,85.1,37.48,128.4,21.56,43.29-15.92,78.64-42.23,116.3-68.87,54.78-38.74,93.07-75.22,160-80,36.29-2.59,70.65,11.66,105.34,19.86,32.58,7.7,68.26,5.9,97.87-10.81,23.17-13.07,40.83-34.01,56.14-55.76,15.31-21.75,28.89-44.85,46.55-64.74,15.38-17.32,34.38-32.33,56.74-38.36,15.77-4.26,32.6-3.75,48.33.47,6.8,1.82,13.31,4.27,19.43,7.74,3.15,1.78,17.56,9.58,17.6,13.6,0,0,3.05,315.5,3.05,315.5H105.45l4.8-60.19Z"/><path class="cls-10" d="m784.84,59.56c-48.41,4.82-94.89,24.43-130.85,54.62-29.28,24.58-52.32,56.11-86.47,74.59-80,43.29-172.01-.87-256.65,1.94C84.63,198.24,0,374.72,0,374.72l827.84,63.05s6.69-23.84,16.58-59.09V60.36c-19.71-2.5-39.87-2.76-59.58-.8Z"/><path class="cls-23" d="m757.64,99.15c-37.03,4-72.57,20.27-100.08,45.34-22.39,20.4-40.01,46.57-66.13,61.91-61.18,35.93-131.55-.72-196.28,1.61-173.02,6.25-166.2,109.25-270.2,120.25-63.67,6.73,665.58,84.81,665.58,84.81,0,0,5.12-19.79,12.68-49.05V99.82c-15.07-2.08-30.49-2.29-45.57-.67Z"/><path class="cls-21" d="m840.17,103.89c-21.31-3.96-44.73-1.34-65.09,5.95-31.12,11.15-56.4,31.63-79.49,52.82-23.09,21.19-45.01,43.72-72.36,60.72-32.75,20.35-72.68,31.97-113.01,32.88-25.39.57-51.01-2.97-76.1.46-39.59,5.41-75.14,29.25-91.01,61.04v53.24h497.05V103.89Z"/><path class="cls-1" d="m723.69,199.1c-25.53,17.63-64.51,20.87-98.61,22.52-34.1,1.65-70,2.41-99.32,16.04-17.42,8.1-32.54,20.82-48.24,31.56-36.05,24.67-79.63,20.3-121.06,19.93-33.7-.3-65.1,7.01-88.71,32.46-15.59,16.8-27.15,37.94-34.22,59.7-.43,1.31-.85,2.62-1.21,3.95h572.64V89.1c-47.26-1-39.26,81-81.26,110Z"/><path class="cls-22" d="m1016.09,120.78c-1.48-1.3-2.6-9.75-5.81-9.06-16.16,3.51-30.4,17.88-39.45,34.45-6.31,11.55-19.76,48.6-62.61,46.04-17.32-1.04-91.13-23.68-107.8-26.44-50.58-8.38-92.73,2.71-126.58,34.15-25.5,23.68-49.7,47.79-74.98,71.39-25.15,23.48-57.21,43.97-92.91,44.04v22.91h507.77c.19-12.35.39-24.71.58-37.06.42-26.6.84-53.2,1.26-79.8.4-25.22.79-50.44,1.19-75.66.11-7.21.23-14.42.34-21.63.03-1.72-.34-2.76-1-3.33Z"/><path class="cls-8" d="m853.95,395.11v-191.26c-.49-.33-1.03-.48-1.65-.37-18.28,3.51-34.4,17.89-44.63,34.45-7.14,11.56-22.36,48.6-70.84,46.04-19.59-1.04-103.11-23.68-121.97-26.44-57.23-8.38-104.92,2.71-143.23,34.16-28.85,23.68-56.24,47.79-84.84,71.4-14.96,12.35-32.09,23.86-50.84,32.02h518Z"/><path class="cls-4" d="m819.95,220.51c-12.32,16.02-35.12,24.99-56.4,26.32-21.06,1.32-42.01-2.74-62.95-5.11-44.97-5.09-93.24-1.72-131.15,20.58-40.41,23.76-66.1,67.07-111.74,81.29-3.46,1.08-7.42,1.9-10.9,3.31-1.57.63-3.03,1.38-4.31,2.33,1.29,1.18,1.29.58,2.67,1.05,7,2.36,20.22,0,27.62,0h347.18v-129.76Z"/><path class="cls-11" d="m892.95,210.03c-12.92,11.94-32.23,18.65-50.43,19.79-21.06,1.32-42.01-2.74-62.95-5.11-44.97-5.09-93.24-1.72-131.15,20.58-40.41,23.76-66.1,67.07-111.74,81.29-3.46,1.08-7.42,1.9-10.9,3.31-1.57.63-3.03,1.38-4.31,2.33,1.29,1.18,1.29.58,2.67,1.05,7,2.36,20.22,0,27.62,0h341.21v-123.23Z"/><path class="cls-18" d="m803.68,256.13c-13.76,20.13-41.84,30.03-67.29,29.98-23.18-.04-45.84-6.07-68.62-10.22-48.91-8.91-102.06-8.61-145.23,13.59-40.84,21-70.12,60.01-111.88,77.34"/><circle class="cls-3" cx="680.42" cy="154.85" r="8.91" transform="translate(418.87 801.8) rotate(-80.81)"/><circle class="cls-7" cx="302.53" cy="268.12" r="8.91"/><circle class="cls-6" cx="509.62" cy="266.32" r="8.91" transform="translate(165.32 726.86) rotate(-80.81)"/><circle class="cls-5" cx="583.69" cy="104.99" r="12.66"/><circle class="cls-9" cx="401.95" cy="245.26" r="26"/><g class="cls-12"><path class="cls-19" d="m4.95,192.76c4.37,0,4.37,8,8.75,8s4.37-8,8.75-8,4.37,8,8.75,8,4.37-8,8.75-8,4.37,8,8.75,8,4.37-8,8.75-8,4.38,8,8.75,8,4.37-8,8.75-8,4.37,8,8.75,8,4.37-8,8.75-8,4.37,8,8.75,8,4.38-8,8.75-8,4.38,8,8.75,8,4.38-8,8.75-8,4.38,8,8.76,8,4.38-8,8.76-8"/></g><g class="cls-12"><path class="cls-19" d="m4.95,205.76c4.37,0,4.37,8,8.75,8s4.37-8,8.75-8,4.37,8,8.75,8,4.37-8,8.75-8,4.37,8,8.75,8,4.37-8,8.75-8,4.38,8,8.75,8,4.37-8,8.75-8,4.37,8,8.75,8,4.37-8,8.75-8,4.37,8,8.75,8,4.38-8,8.75-8,4.38,8,8.75,8,4.38-8,8.75-8,4.38,8,8.76,8,4.38-8,8.76-8"/></g><path class="cls-14" d="m210.95,55.26c16.33-13,32.67-26,49-39"/><line class="cls-16" x1="100.6" y1="100.49" x2="137.6" y2="72.49"/><path class="cls-20" d="m498.45,19.26c0,4.37-8,4.37-8,8.75s8,4.37,8,8.75-8,4.37-8,8.75,8,4.37,8,8.75-8,4.37-8,8.75,8,4.37,8,8.75-8,4.38-8,8.75,8,4.37,8,8.75-8,4.37-8,8.75,8,4.37,8,8.75-8,4.37-8,8.75,8,4.38,8,8.75-8,4.38-8,8.75,8,4.38,8,8.75-8,4.38-8,8.76,8,4.38,8,8.76"/><path class="cls-20" d="m515.45,19.26c0,4.37-8,4.37-8,8.75s8,4.37,8,8.75-8,4.37-8,8.75,8,4.37,8,8.75-8,4.37-8,8.75,8,4.37,8,8.75-8,4.38-8,8.75,8,4.37,8,8.75-8,4.37-8,8.75,8,4.37,8,8.75-8,4.37-8,8.75,8,4.38,8,8.75-8,4.38-8,8.75,8,4.38,8,8.75-8,4.38-8,8.76,8,4.38,8,8.76"/></g></g></g></svg>