<?xml version="1.0" encoding="UTF-8"?><svg xmlns="http://www.w3.org/2000/svg" xmlns:xlink="http://www.w3.org/1999/xlink" viewBox="0 0 834.91 599.64"><defs><style>.cls-1{fill:url(#Unnamed_Pattern_3-3);}.cls-1,.cls-2,.cls-3,.cls-4,.cls-5,.cls-6,.cls-7{mix-blend-mode:overlay;}.cls-1,.cls-2,.cls-4{opacity:.47;}.cls-8{fill:#fff;}.cls-9{fill:url(#Degradado_sin_nombre_3-2);}.cls-10{fill:url(#Degradado_sin_nombre_184);}.cls-10,.cls-6{opacity:.78;}.cls-11{opacity:.63;stroke:url(#Degradado_sin_nombre_182);stroke-width:2.15px;}.cls-11,.cls-12,.cls-13{fill:none;}.cls-11,.cls-13{stroke-miterlimit:10;}.cls-14{isolation:isolate;}.cls-15{fill:url(#Degradado_sin_nombre_3);}.cls-16{fill:url(#Degradado_sin_nombre_181);}.cls-16,.cls-17,.cls-18,.cls-19{opacity:.92;}.cls-2{fill:url(#Unnamed_Pattern_3);}.cls-20{fill:url(#Degradado_sin_nombre_185);}.cls-21{clip-path:url(#clippath);}.cls-17{fill:url(#Degradado_sin_nombre_180);}.cls-3{fill:url(#Unnamed_Pattern_4);opacity:.49;}.cls-4{fill:url(#Unnamed_Pattern_3-2);}.cls-5{fill:url(#Degradado_sin_nombre_1074);opacity:.4;}.cls-18{fill:url(#Degradado_sin_nombre_183);}.cls-6{fill:url(#Degradado_sin_nombre_1074-2);}.cls-19{fill:url(#Degradado_sin_nombre_181-2);}.cls-13{stroke:#fff;stroke-width:.91px;}</style><clipPath id="clippath"><rect class="cls-12" x="84.91" y="99.64" width="750" height="500"/></clipPath><pattern id="Unnamed_Pattern_4" x="0" y="0" width="7.83" height="10" patternTransform="translate(40.74 -1223.36)" patternUnits="userSpaceOnUse" viewBox="0 0 7.83 10"><rect class="cls-12" y="0" width="7.83" height="10"/><circle class="cls-8" cx="5.42" cy="11" r="1.5"/><circle class="cls-8" cx="1.5" cy="6" r="1.5"/><circle class="cls-8" cx="5.42" cy="1" r="1.5"/></pattern><linearGradient id="Degradado_sin_nombre_3" x1="-4195.94" y1="84.14" x2="-4133.05" y2="223.33" gradientTransform="translate(-3843.7 356) rotate(-180)" gradientUnits="userSpaceOnUse"><stop offset="0" stop-color="#3c2d7a"/><stop offset=".15" stop-color="#332668"/><stop offset=".51" stop-color="#221a46"/><stop offset=".81" stop-color="#171230"/><stop offset="1" stop-color="#141029"/></linearGradient><linearGradient id="Degradado_sin_nombre_3-2" x1="-4118.79" y1="141.67" x2="-4083.2" y2="237.89" xlink:href="#Degradado_sin_nombre_3"/><linearGradient id="Degradado_sin_nombre_185" x1="-4147.79" y1="156.88" x2="-4117.11" y2="301.75" gradientTransform="translate(-3843.7 356) rotate(-180)" gradientUnits="userSpaceOnUse"><stop offset="0" stop-color="#e221ab"/><stop offset=".05" stop-color="#c921a2"/><stop offset=".16" stop-color="#9b2192"/><stop offset=".26" stop-color="#762186"/><stop offset=".36" stop-color="#5b217d"/><stop offset=".44" stop-color="#4b2177"/><stop offset=".51" stop-color="#462176"/><stop offset="1" stop-color="#462176" stop-opacity="0"/></linearGradient><linearGradient id="Degradado_sin_nombre_184" x1="-4131.25" y1="109.89" x2="-4080.93" y2="429.75" gradientTransform="translate(-3843.7 356) rotate(-180)" gradientUnits="userSpaceOnUse"><stop offset="0" stop-color="#e221ab"/><stop offset=".51" stop-color="#462176"/><stop offset="1" stop-color="#462176" stop-opacity="0"/></linearGradient><linearGradient id="Degradado_sin_nombre_1074" x1="255.22" y1="204.18" x2="233.22" y2="111.51" gradientUnits="userSpaceOnUse"><stop offset="0" stop-color="#fff"/><stop offset="1" stop-color="#fff" stop-opacity="0"/></linearGradient><linearGradient id="Degradado_sin_nombre_183" x1="-4074.58" y1="214.81" x2="-3917.26" y2="446.61" gradientTransform="translate(-3843.7 356) rotate(-180)" gradientUnits="userSpaceOnUse"><stop offset="0" stop-color="#e221ab"/><stop offset=".29" stop-color="#e221ab"/><stop offset=".36" stop-color="#dd21a9" stop-opacity=".97"/><stop offset=".46" stop-color="#cf21a4" stop-opacity=".88"/><stop offset=".58" stop-color="#ba219d" stop-opacity=".74"/><stop offset=".71" stop-color="#9b2193" stop-opacity=".55"/><stop offset=".85" stop-color="#742185" stop-opacity=".3"/><stop offset="1" stop-color="#462176" stop-opacity="0"/></linearGradient><linearGradient id="Degradado_sin_nombre_1074-2" x1="-4081.72" y1="214.73" x2="-4031.21" y2="289.15" gradientTransform="translate(-3843.7 356) rotate(-180)" xlink:href="#Degradado_sin_nombre_1074"/><linearGradient id="Degradado_sin_nombre_182" x1="-4047.54" y1="183.95" x2="-4047.54" y2="325.59" gradientTransform="translate(-3850.51 169.33) rotate(-177.36)" gradientUnits="userSpaceOnUse"><stop offset="0" stop-color="#f40076" stop-opacity=".1"/><stop offset=".35" stop-color="#e221ab"/><stop offset="1" stop-color="#f3a4dd"/></linearGradient><linearGradient id="Degradado_sin_nombre_181" x1="-3963.8" y1="104.87" x2="-3963.8" y2="130.38" gradientTransform="translate(-2763.37 -2480.23) rotate(-135)" gradientUnits="userSpaceOnUse"><stop offset="0" stop-color="#e221ab"/><stop offset=".17" stop-color="#bd219e"/><stop offset=".44" stop-color="#8a218d"/><stop offset=".67" stop-color="#652180"/><stop offset=".86" stop-color="#4e2178"/><stop offset=".98" stop-color="#462176"/></linearGradient><linearGradient id="Degradado_sin_nombre_181-2" x1="-4055.03" y1="131.9" x2="-4055.03" y2="150.51" gradientTransform="translate(-3843.7 356) rotate(-180)" xlink:href="#Degradado_sin_nombre_181"/><linearGradient id="Degradado_sin_nombre_180" x1="411.98" y1="169.71" x2="406.22" y2="141.67" gradientUnits="userSpaceOnUse"><stop offset="0" stop-color="#f29dda"/><stop offset=".13" stop-color="#e685ce"/><stop offset=".4" stop-color="#d25ab9"/><stop offset=".65" stop-color="#c43aa9"/><stop offset=".86" stop-color="#bb27a0"/><stop offset="1" stop-color="#b8219d"/></linearGradient><pattern id="Unnamed_Pattern_3" x="0" y="0" width="18.99" height="18.74" patternTransform="translate(1122.2 -313.13) scale(1.12)" patternUnits="userSpaceOnUse" viewBox="0 0 18.99 18.74"><rect class="cls-12" width="18.99" height="18.74"/><polygon class="cls-8" points="19 18.74 0 24.99 0 22.99 19 16.74 19 18.74"/><polygon class="cls-8" points="0 18.74 -18.99 24.99 -18.99 22.99 0 16.74 0 18.74"/><polygon class="cls-8" points="19 12.49 0 18.74 0 16.74 19 10.49 19 12.49"/><polygon class="cls-8" points="0 12.49 -18.99 18.74 -18.99 16.74 0 10.49 0 12.49"/><polygon class="cls-8" points="19 6.24 0 12.49 0 10.49 19 4.24 19 6.24"/><polygon class="cls-8" points="0 6.24 -18.99 12.49 -18.99 10.49 0 4.24 0 6.24"/><polygon class="cls-8" points="19 0 0 6.25 0 4.25 19 -2 19 0"/><polygon class="cls-8" points="0 0 -18.99 6.25 -18.99 4.25 0 -2 0 0"/></pattern><pattern id="Unnamed_Pattern_3-2" patternTransform="translate(163.93 -1202.19)" xlink:href="#Unnamed_Pattern_3"/><pattern id="Unnamed_Pattern_3-3" patternTransform="translate(180.16 -1211.75)" xlink:href="#Unnamed_Pattern_3"/></defs><g class="cls-14"><g id="Layer_2"><g id="Background"><g class="cls-21"><path class="cls-3" d="m74.81,323.11c38.11-4.12,74.7-20.87,103.01-46.66,23.05-21,41.18-47.93,68.07-63.72,62.97-36.99,135.41.74,202.03-1.66,178.09-6.43,244.71-157.2,244.71-157.2L40.96,0s-5.26,20.37-13.05,50.48v271.95c15.51,2.14,31.39,2.36,46.9.68Z"/><path class="cls-15" d="m140.45,298.24c29.55-30.6,46.65-72.85,84.07-94.48,26.75-15.46,59.73-17.66,91.08-16.36,31.35,1.3,64.74,3.12,96.06,1.68,168.16-7.75,209.51-170.61,209.51-170.61H2.8v328.56c50.5,4.16,103.37-13.3,137.65-48.8Z"/><path class="cls-9" d="m2.8,307.19c21.93,4.07,46.04,1.38,66.99-6.13,32.03-11.47,58.05-32.56,81.82-54.37,23.76-21.81,46.33-45,74.47-62.49,33.71-20.95,74.8-32.91,116.32-33.84,26.14-.59,52.5,3.06,78.33-.47,40.75-5.57,77.34-30.11,93.67-62.82v-54.8H2.8v274.91Z"/><path class="cls-20" d="m44.31,273.82c13.5-19.19,23.77-40.6,44.76-55.16,26.23-18.21,63.76-22.03,98.86-23.73,35.1-1.7,72.05-2.48,102.23-16.51,17.93-8.33,33.49-21.42,49.65-32.49,46.18-31.6,99.16-17.9,150.67-21.3,76.61-5.05,101.71-98.14,101.71-98.14H2.8v282.99c17.77-7.41,31.55-21.49,41.52-35.65Z"/><path class="cls-10" d="m16.34,244.54c1.47,1.34,2.58,10.04,5.77,9.32,16.07-3.61,30.23-18.41,39.23-35.45,6.28-11.89,19.65-50.02,62.26-47.38,17.22,1.07,90.62,24.37,107.2,27.21,50.3,8.63,92.21-2.79,125.88-35.15,25.35-24.37,49.43-49.19,74.57-73.48,25.01-24.17,56.89-45.25,92.4-45.33v-23.58H18.7c-.19,12.71-.39,25.43-.58,38.14-.42,27.38-.83,54.76-1.25,82.14-.39,25.96-.79,51.92-1.18,77.88-.11,7.42-.23,14.84-.34,22.26-.03,1.77.34,2.84.99,3.43Z"/><path class="cls-5" d="m2.8,15.49v196.86c.44.34.92.5,1.47.38,16.3-3.62,30.68-18.41,39.81-35.46,6.37-11.89,19.94-50.03,63.18-47.39,17.47,1.07,91.96,24.37,108.79,27.21,51.04,8.63,93.57-2.79,127.74-35.16,25.73-24.37,50.16-49.19,75.67-73.49,13.34-12.71,28.62-24.56,45.34-32.96H2.8Z"/><path class="cls-18" d="m2.8,157.59c12.68-16.49,36.15-25.72,58.05-27.09,21.68-1.35,43.24,2.82,64.8,5.26,46.29,5.24,95.97,1.77,134.99-21.18,41.59-24.46,68.04-69.03,115.01-83.67,3.56-1.11,7.64-1.95,11.22-3.4,1.61-.65,3.12-1.42,4.44-2.4-1.33-1.22-1.33-.6-2.75-1.08-7.21-2.43-20.81,0-28.43,0H2.8v133.56Z"/><path class="cls-6" d="m.91,136.48c13.3-12.29,33.18-19.2,51.9-20.37,21.68-1.35,43.24,2.82,64.8,5.26,46.29,5.24,95.97,1.77,134.99-21.18,41.59-24.46,68.04-69.03,115.01-83.67,3.56-1.11,7.64-1.95,11.22-3.4,1.61-.65,3.12-1.42,4.44-2.4-1.33-1.22-1.33-.6-2.75-1.08-7.21-2.43-20.81,0-28.43,0H.91v126.84Z"/><path class="cls-11" d="m.89,162.39c13.92-20.98,42.98-31.71,69.5-32.15,24.15-.4,47.89,5.37,71.72,9.2,58.86,9.47,98.83,10.99,151.07-16.78,42.13-22.39,71.84-63.1,115-81.75"/><circle class="cls-16" cx="120.1" cy="241.96" r="9.17" transform="translate(-135.92 155.79) rotate(-45)"/><circle class="cls-19" cx="211.34" cy="218.31" r="5.79"/><circle class="cls-17" cx="408.77" cy="154.1" r="9.17"/><circle class="cls-2" cx="779.91" cy="287.64" r="29"/><circle class="cls-4" cx="122.91" cy="329.64" r="26"/><circle class="cls-1" cx="594.91" cy="207.64" r="26"/><g class="cls-7"><path class="cls-13" d="m811.41,58.64c0,4.37-8,4.37-8,8.75s8,4.37,8,8.75-8,4.37-8,8.75,8,4.37,8,8.75-8,4.37-8,8.75,8,4.37,8,8.75-8,4.38-8,8.75,8,4.37,8,8.75-8,4.37-8,8.75,8,4.37,8,8.75-8,4.37-8,8.75,8,4.38,8,8.75-8,4.38-8,8.75,8,4.38,8,8.75-8,4.38-8,8.76,8,4.38,8,8.76"/></g><g class="cls-7"><path class="cls-13" d="m796.41,58.64c0,4.37-8,4.37-8,8.75s8,4.37,8,8.75-8,4.37-8,8.75,8,4.37,8,8.75-8,4.37-8,8.75,8,4.37,8,8.75-8,4.38-8,8.75,8,4.37,8,8.75-8,4.37-8,8.75,8,4.37,8,8.75-8,4.37-8,8.75,8,4.38,8,8.75-8,4.38-8,8.75,8,4.38,8,8.75-8,4.38-8,8.76,8,4.38,8,8.76"/></g><path class="cls-8" d="m115.02,118.76c-1.25,0-2.26,1.01-2.26,2.26s1.01,2.26,2.26,2.26,2.26-1.01,2.26-2.26-1.01-2.26-2.26-2.26Z"/><path class="cls-8" d="m125.15,123.29c1.25,0,2.26-1.01,2.26-2.26s-1.01-2.26-2.26-2.26-2.26,1.01-2.26,2.26,1.01,2.26,2.26,2.26Z"/><path class="cls-8" d="m115.02,130.28c-1.25,0-2.26,1.01-2.26,2.26s1.01,2.26,2.26,2.26,2.26-1.01,2.26-2.26-1.01-2.26-2.26-2.26Z"/><path class="cls-8" d="m125.15,130.28c-1.25,0-2.26,1.01-2.26,2.26s1.01,2.26,2.26,2.26,2.26-1.01,2.26-2.26-1.01-2.26-2.26-2.26Z"/><path class="cls-8" d="m115.02,141.79c-1.25,0-2.26,1.01-2.26,2.26s1.01,2.26,2.26,2.26,2.26-1.01,2.26-2.26-1.01-2.26-2.26-2.26Z"/><path class="cls-8" d="m125.15,141.79c-1.25,0-2.26,1.01-2.26,2.26s1.01,2.26,2.26,2.26,2.26-1.01,2.26-2.26-1.01-2.26-2.26-2.26Z"/><path class="cls-8" d="m115.02,153.3c-1.25,0-2.26,1.01-2.26,2.26s1.01,2.26,2.26,2.26,2.26-1.01,2.26-2.26-1.01-2.26-2.26-2.26Z"/><path class="cls-8" d="m125.15,153.3c-1.25,0-2.26,1.01-2.26,2.26s1.01,2.26,2.26,2.26,2.26-1.01,2.26-2.26-1.01-2.26-2.26-2.26Z"/><path class="cls-8" d="m115.02,164.82c-1.25,0-2.26,1.01-2.26,2.26s1.01,2.26,2.26,2.26,2.26-1.01,2.26-2.26-1.01-2.26-2.26-2.26Z"/><path class="cls-8" d="m125.15,164.82c-1.25,0-2.26,1.01-2.26,2.26s1.01,2.26,2.26,2.26,2.26-1.01,2.26-2.26-1.01-2.26-2.26-2.26Z"/><path class="cls-8" d="m115.02,176.33c-1.25,0-2.26,1.01-2.26,2.26s1.01,2.26,2.26,2.26,2.26-1.01,2.26-2.26-1.01-2.26-2.26-2.26Z"/><path class="cls-8" d="m125.15,176.33c-1.25,0-2.26,1.01-2.26,2.26s1.01,2.26,2.26,2.26,2.26-1.01,2.26-2.26-1.01-2.26-2.26-2.26Z"/><path class="cls-8" d="m115.02,187.84c-1.25,0-2.26,1.01-2.26,2.26s1.01,2.26,2.26,2.26,2.26-1.01,2.26-2.26-1.01-2.26-2.26-2.26Z"/><path class="cls-8" d="m125.15,187.84c-1.25,0-2.26,1.01-2.26,2.26s1.01,2.26,2.26,2.26,2.26-1.01,2.26-2.26-1.01-2.26-2.26-2.26Z"/></g></g></g></g></svg>