<?xml version="1.0" encoding="UTF-8"?><svg id="Layer_2" xmlns="http://www.w3.org/2000/svg" xmlns:xlink="http://www.w3.org/1999/xlink" viewBox="0 0 601.89 298.78"><defs><style>.cls-1{stroke:url(#linear-gradient-20);}.cls-1,.cls-2,.cls-3,.cls-4,.cls-5,.cls-6,.cls-7,.cls-8,.cls-9,.cls-10,.cls-11,.cls-12,.cls-13,.cls-14,.cls-15,.cls-16,.cls-17,.cls-18,.cls-19,.cls-20,.cls-21,.cls-22,.cls-23,.cls-24,.cls-25,.cls-26,.cls-27,.cls-28,.cls-29,.cls-30,.cls-31,.cls-32,.cls-33,.cls-34,.cls-35,.cls-36,.cls-37,.cls-38,.cls-39,.cls-40,.cls-41,.cls-42,.cls-43,.cls-44,.cls-45,.cls-46,.cls-47,.cls-48,.cls-49,.cls-50,.cls-51,.cls-52,.cls-53,.cls-54,.cls-55,.cls-56,.cls-57,.cls-58,.cls-59,.cls-60,.cls-61,.cls-62{stroke-miterlimit:10;}.cls-1,.cls-2,.cls-3,.cls-4,.cls-5,.cls-6,.cls-7,.cls-8,.cls-9,.cls-10,.cls-11,.cls-12,.cls-14,.cls-15,.cls-16,.cls-17,.cls-18,.cls-19,.cls-20,.cls-21,.cls-22,.cls-23,.cls-24,.cls-25,.cls-27,.cls-28,.cls-29,.cls-30,.cls-31,.cls-32,.cls-34,.cls-35,.cls-36,.cls-37,.cls-38,.cls-42,.cls-43,.cls-45,.cls-46,.cls-47,.cls-49,.cls-50,.cls-51,.cls-52,.cls-54,.cls-55,.cls-56,.cls-57,.cls-58,.cls-59,.cls-60,.cls-61{fill:#ea227a;}.cls-2{stroke:url(#linear-gradient-55);}.cls-63{fill:url(#linear-gradient-2);}.cls-3{stroke:url(#linear-gradient-16);}.cls-4{stroke:url(#linear-gradient-49);}.cls-5{stroke:url(#linear-gradient-38);}.cls-6{stroke:url(#linear-gradient-45);}.cls-7{stroke:url(#linear-gradient-41);}.cls-8{stroke:url(#linear-gradient-32);}.cls-9{stroke:url(#linear-gradient-19);}.cls-10{stroke:url(#linear-gradient-43);}.cls-11{stroke:url(#linear-gradient-42);}.cls-12{stroke:url(#linear-gradient-28);}.cls-13{stroke:url(#linear-gradient-44);}.cls-13,.cls-33,.cls-39,.cls-40,.cls-41,.cls-44,.cls-48,.cls-53,.cls-62{fill:#fff;}.cls-14{stroke:url(#linear-gradient-23);}.cls-15{stroke:url(#linear-gradient-14);}.cls-16{stroke:url(#linear-gradient-24);}.cls-17{stroke:url(#linear-gradient-57);}.cls-18{stroke:url(#linear-gradient-7);}.cls-19{stroke:url(#linear-gradient-40);}.cls-20{stroke:url(#linear-gradient-51);}.cls-21{stroke:url(#linear-gradient-36);}.cls-22{stroke:url(#linear-gradient-12);}.cls-23{stroke:url(#linear-gradient-34);}.cls-24{stroke:url(#linear-gradient-30);}.cls-25{stroke:url(#linear-gradient-50);}.cls-26{fill:none;stroke:url(#linear-gradient-67);}.cls-27{stroke:url(#linear-gradient-21);}.cls-28{stroke:url(#linear-gradient-6);}.cls-64{opacity:.78;}.cls-29{stroke:url(#linear-gradient-63);}.cls-30{stroke:url(#linear-gradient-25);}.cls-31{stroke:url(#linear-gradient-37);}.cls-32{stroke:url(#linear-gradient-33);}.cls-33{stroke:url(#linear-gradient-56);}.cls-34{stroke:url(#linear-gradient-60);}.cls-35{stroke:url(#linear-gradient-52);}.cls-65{fill:url(#linear-gradient-5);}.cls-36{stroke:url(#linear-gradient-17);}.cls-37{stroke:url(#linear-gradient-47);}.cls-38{stroke:url(#linear-gradient-18);}.cls-39{stroke:url(#linear-gradient-62);}.cls-40{stroke:url(#linear-gradient-53);}.cls-41{stroke:url(#linear-gradient-64);}.cls-42{stroke:url(#linear-gradient-29);}.cls-43{stroke:url(#linear-gradient-65);}.cls-44{stroke:url(#linear-gradient-10);}.cls-45{stroke:url(#linear-gradient-35);}.cls-46{stroke:url(#linear-gradient-66);}.cls-47{stroke:url(#linear-gradient-8);}.cls-48{stroke:url(#linear-gradient-13);}.cls-49{stroke:url(#linear-gradient-27);}.cls-50{stroke:url(#linear-gradient-59);}.cls-51{stroke:url(#linear-gradient-26);}.cls-66{fill:url(#linear-gradient-3);}.cls-67{fill:url(#linear-gradient);}.cls-52{stroke:url(#linear-gradient-61);}.cls-53{stroke:url(#linear-gradient-22);}.cls-54{stroke:url(#linear-gradient-48);}.cls-55{stroke:url(#linear-gradient-39);}.cls-56{stroke:url(#linear-gradient-46);}.cls-57{stroke:url(#linear-gradient-15);}.cls-58{stroke:url(#linear-gradient-11);}.cls-59{stroke:url(#linear-gradient-54);}.cls-68{fill:url(#linear-gradient-4);}.cls-60{stroke:url(#linear-gradient-9);}.cls-61{stroke:url(#linear-gradient-58);}.cls-62{stroke:url(#linear-gradient-31);}</style><linearGradient id="linear-gradient" x1="26.22" y1="118.58" x2="476.96" y2="71.28" gradientUnits="userSpaceOnUse"><stop offset="0" stop-color="#462176"/><stop offset=".12" stop-color="#4b2177"/><stop offset=".26" stop-color="#5a217c"/><stop offset=".42" stop-color="#722185"/><stop offset=".59" stop-color="#952191"/><stop offset=".76" stop-color="#c1219f"/><stop offset=".87" stop-color="#e221ab"/></linearGradient><linearGradient id="linear-gradient-2" x1="52.45" y1="113.17" x2="600.75" y2="113.17" gradientUnits="userSpaceOnUse"><stop offset=".34" stop-color="#b8219d"/><stop offset=".49" stop-color="#cc4db3"/><stop offset=".65" stop-color="#e078c8"/><stop offset=".78" stop-color="#ed93d5"/><stop offset=".85" stop-color="#f29dda"/></linearGradient><linearGradient id="linear-gradient-3" x1="288.18" y1="29.05" x2="108" y2="345.81" xlink:href="#linear-gradient-2"/><linearGradient id="linear-gradient-4" x1="17.66" y1="132.07" x2="481.8" y2="-50.91" gradientUnits="userSpaceOnUse"><stop offset=".16" stop-color="#e221ab"/><stop offset=".6" stop-color="#702184"/><stop offset=".76" stop-color="#462176"/></linearGradient><linearGradient id="linear-gradient-5" y1="90.8" x2="532.08" y2="90.8" xlink:href="#linear-gradient-2"/><linearGradient id="linear-gradient-6" x1="134.25" y1="56.02" x2="137.67" y2="56.02" xlink:href="#linear-gradient-2"/><linearGradient id="linear-gradient-7" x1="147.1" y1="56.02" x2="150.53" y2="56.02" xlink:href="#linear-gradient-2"/><linearGradient id="linear-gradient-8" x1="159.95" y1="56.02" x2="163.38" y2="56.02" xlink:href="#linear-gradient-2"/><linearGradient id="linear-gradient-9" x1="172.8" y1="56.02" x2="176.23" y2="56.02" xlink:href="#linear-gradient-2"/><linearGradient id="linear-gradient-10" x1="185.65" y1="56.02" x2="189.08" y2="56.02" xlink:href="#linear-gradient-2"/><linearGradient id="linear-gradient-11" x1="198.51" y1="56.02" x2="201.93" y2="56.02" xlink:href="#linear-gradient-2"/><linearGradient id="linear-gradient-12" x1="211.36" y1="56.02" x2="214.78" y2="56.02" xlink:href="#linear-gradient-2"/><linearGradient id="linear-gradient-13" x1="134.25" y1="70.25" x2="137.67" y2="70.25" xlink:href="#linear-gradient-2"/><linearGradient id="linear-gradient-14" x1="147.1" y1="70.25" x2="150.53" y2="70.25" xlink:href="#linear-gradient-2"/><linearGradient id="linear-gradient-15" x1="159.95" y1="70.25" x2="163.38" y2="70.25" xlink:href="#linear-gradient-2"/><linearGradient id="linear-gradient-16" x1="172.8" y1="70.25" x2="176.23" y2="70.25" xlink:href="#linear-gradient-2"/><linearGradient id="linear-gradient-17" x1="185.65" y1="70.25" x2="189.08" y2="70.25" xlink:href="#linear-gradient-2"/><linearGradient id="linear-gradient-18" x1="198.51" y1="70.25" x2="201.93" y2="70.25" xlink:href="#linear-gradient-2"/><linearGradient id="linear-gradient-19" x1="211.36" y1="70.25" x2="214.78" y2="70.25" xlink:href="#linear-gradient-2"/><linearGradient id="linear-gradient-20" x1="134.25" y1="84.47" x2="137.67" y2="84.47" xlink:href="#linear-gradient-2"/><linearGradient id="linear-gradient-21" x1="147.1" y1="84.47" x2="150.53" y2="84.47" xlink:href="#linear-gradient-2"/><linearGradient id="linear-gradient-22" x1="159.95" y1="84.47" x2="163.38" y2="84.47" xlink:href="#linear-gradient-2"/><linearGradient id="linear-gradient-23" x1="172.8" y1="84.47" x2="176.23" y2="84.47" xlink:href="#linear-gradient-2"/><linearGradient id="linear-gradient-24" x1="185.65" y1="84.47" x2="189.08" y2="84.47" xlink:href="#linear-gradient-2"/><linearGradient id="linear-gradient-25" x1="198.51" y1="84.47" x2="201.93" y2="84.47" xlink:href="#linear-gradient-2"/><linearGradient id="linear-gradient-26" x1="211.36" y1="84.47" x2="214.78" y2="84.47" xlink:href="#linear-gradient-2"/><linearGradient id="linear-gradient-27" x1="134.25" y1="98.69" x2="137.67" y2="98.69" xlink:href="#linear-gradient-2"/><linearGradient id="linear-gradient-28" x1="147.1" y1="98.69" x2="150.53" y2="98.69" xlink:href="#linear-gradient-2"/><linearGradient id="linear-gradient-29" x1="159.95" y1="98.69" x2="163.38" y2="98.69" xlink:href="#linear-gradient-2"/><linearGradient id="linear-gradient-30" x1="172.8" y1="98.69" x2="176.23" y2="98.69" xlink:href="#linear-gradient-2"/><linearGradient id="linear-gradient-31" x1="185.65" y1="98.69" x2="189.08" y2="98.69" xlink:href="#linear-gradient-2"/><linearGradient id="linear-gradient-32" x1="198.51" y1="98.69" x2="201.93" y2="98.69" xlink:href="#linear-gradient-2"/><linearGradient id="linear-gradient-33" x1="211.36" y1="98.69" x2="214.78" y2="98.69" xlink:href="#linear-gradient-2"/><linearGradient id="linear-gradient-34" x1="134.25" y1="112.91" x2="137.67" y2="112.91" xlink:href="#linear-gradient-2"/><linearGradient id="linear-gradient-35" x1="147.1" y1="112.91" x2="150.53" y2="112.91" xlink:href="#linear-gradient-2"/><linearGradient id="linear-gradient-36" x1="159.95" y1="112.91" x2="163.38" y2="112.91" xlink:href="#linear-gradient-2"/><linearGradient id="linear-gradient-37" x1="172.8" y1="112.91" x2="176.23" y2="112.91" xlink:href="#linear-gradient-2"/><linearGradient id="linear-gradient-38" x1="185.65" y1="112.91" x2="189.08" y2="112.91" xlink:href="#linear-gradient-2"/><linearGradient id="linear-gradient-39" x1="198.51" y1="112.91" x2="201.93" y2="112.91" xlink:href="#linear-gradient-2"/><linearGradient id="linear-gradient-40" x1="211.36" y1="112.91" x2="214.78" y2="112.91" xlink:href="#linear-gradient-2"/><linearGradient id="linear-gradient-41" x1="134.25" y1="127.13" x2="137.67" y2="127.13" xlink:href="#linear-gradient-2"/><linearGradient id="linear-gradient-42" x1="147.1" y1="127.13" x2="150.53" y2="127.13" xlink:href="#linear-gradient-2"/><linearGradient id="linear-gradient-43" x1="159.95" y1="127.13" x2="163.38" y2="127.13" xlink:href="#linear-gradient-2"/><linearGradient id="linear-gradient-44" x1="172.8" y1="127.13" x2="176.23" y2="127.13" xlink:href="#linear-gradient-2"/><linearGradient id="linear-gradient-45" x1="185.65" y1="127.13" x2="189.08" y2="127.13" xlink:href="#linear-gradient-2"/><linearGradient id="linear-gradient-46" x1="198.51" y1="127.13" x2="201.93" y2="127.13" xlink:href="#linear-gradient-2"/><linearGradient id="linear-gradient-47" x1="211.36" y1="127.13" x2="214.78" y2="127.13" xlink:href="#linear-gradient-2"/><linearGradient id="linear-gradient-48" x1="134.25" y1="141.35" x2="137.67" y2="141.35" xlink:href="#linear-gradient-2"/><linearGradient id="linear-gradient-49" x1="147.1" y1="141.35" x2="150.53" y2="141.35" xlink:href="#linear-gradient-2"/><linearGradient id="linear-gradient-50" x1="159.95" y1="141.35" x2="163.38" y2="141.35" xlink:href="#linear-gradient-2"/><linearGradient id="linear-gradient-51" x1="172.8" y1="141.35" x2="176.23" y2="141.35" xlink:href="#linear-gradient-2"/><linearGradient id="linear-gradient-52" x1="185.65" y1="141.35" x2="189.08" y2="141.35" xlink:href="#linear-gradient-2"/><linearGradient id="linear-gradient-53" x1="198.51" y1="141.35" x2="201.93" y2="141.35" xlink:href="#linear-gradient-2"/><linearGradient id="linear-gradient-54" x1="211.36" y1="141.35" x2="214.78" y2="141.35" xlink:href="#linear-gradient-2"/><linearGradient id="linear-gradient-55" x1="134.25" y1="155.57" x2="137.67" y2="155.57" xlink:href="#linear-gradient-2"/><linearGradient id="linear-gradient-56" x1="147.1" y1="155.57" x2="150.53" y2="155.57" xlink:href="#linear-gradient-2"/><linearGradient id="linear-gradient-57" x1="159.95" y1="155.57" x2="163.38" y2="155.57" xlink:href="#linear-gradient-2"/><linearGradient id="linear-gradient-58" x1="172.8" y1="155.57" x2="176.23" y2="155.57" xlink:href="#linear-gradient-2"/><linearGradient id="linear-gradient-59" x1="185.65" y1="155.57" x2="189.08" y2="155.57" xlink:href="#linear-gradient-2"/><linearGradient id="linear-gradient-60" x1="198.51" y1="155.57" x2="201.93" y2="155.57" xlink:href="#linear-gradient-2"/><linearGradient id="linear-gradient-61" x1="211.36" y1="155.57" x2="214.78" y2="155.57" xlink:href="#linear-gradient-2"/><linearGradient id="linear-gradient-62" x1="110.18" y1="207.54" x2="116.51" y2="207.54" xlink:href="#linear-gradient-2"/><linearGradient id="linear-gradient-63" x1="83.69" y1="47.86" x2="89.28" y2="47.86" xlink:href="#linear-gradient-2"/><linearGradient id="linear-gradient-64" x1="482.45" y1="124.54" x2="488.04" y2="124.54" xlink:href="#linear-gradient-2"/><linearGradient id="linear-gradient-65" x1="278.5" y1="171.28" x2="282.24" y2="171.28" xlink:href="#linear-gradient-2"/><linearGradient id="linear-gradient-66" x1="275.26" y1="171.28" x2="285.48" y2="171.28" gradientTransform="translate(109.09 451.65) rotate(-90)" xlink:href="#linear-gradient-2"/><linearGradient id="linear-gradient-67" x1="295.99" y1="54.81" x2="334.46" y2="54.81" xlink:href="#linear-gradient-2"/></defs><g id="OBJECTS"><g class="cls-64"><path class="cls-67" d="m52.95,2.56v218.96c30.26,4.32,61.58,2.67,91.54-3.7,50.48-10.74,97.5-34.19,140.79-62.3,60.27-39.13,141.1-92.17,205.9-110.05,25.88-7.14,48.55-11.93,80.74-26.07,9.68-4.25,19.08-9.97,27.43-16.84H52.95Z"/><path class="cls-63" d="m50.45,2.56v209.97c0,2.84-.22,5.78,0,8.62,0,.12,0,.25,0,.38,0,.98.77,2.26,1.84,2.41,42.77,6.01,86.22.49,127.08-13.01,38.7-12.79,74.78-32.2,108.88-54.34,31.73-20.6,63.49-41.21,96.31-60.04,31.78-18.23,64.8-35.61,99.91-46.49,16.2-5.02,32.79-8.68,49-13.67,9.32-2.87,18.53-6.1,27.58-9.72,9.66-3.86,19.21-7.98,28.01-13.57,4.2-2.67,8.2-5.61,12.06-8.75,1.74-1.42.25-4.27-1.77-4.27H75.1C68.03.06,60.94-.07,53.87.06c-.31,0-.62,0-.93,0-3.22,0-3.22,5,0,5h524.25c7,0,14.24.54,21.22,0,.31-.02.62,0,.93,0l-1.77-4.27c-16.1,13.12-35.63,20.79-55.11,27.41-16.29,5.54-32.98,9.67-49.56,14.2-34.28,9.35-66.53,25.17-97.53,42.29-33.1,18.28-65.01,38.61-96.73,59.16-16.21,10.51-32.39,21.02-49.29,30.41-17.83,9.91-36.26,18.8-55.31,26.11-39.45,15.13-81.65,23.4-123.98,20.45-5.5-.38-10.99-.95-16.45-1.72l1.84,2.41V11.55c0-2.85.2-5.78,0-8.62,0-.12,0-.25,0-.38,0-3.22-5-3.22-5,0Z"/></g><path class="cls-66" d="m.59,285.48c15.29,5.22,30.93,9.45,46.98,11.55s31.13,2.33,46.65.71c30.68-3.2,60.17-13.43,87.68-27.12,26.67-13.27,51.71-29.07,74.85-47.83s45.34-40.53,66.51-62.32c11.16-11.48,22.18-23.1,33.24-34.67,5.4-5.66,10.64-11.6,16.34-16.96,5-4.7,10.95-8.32,16.42-12.43,2.36-1.77,4.67-3.61,6.74-5.72.78-.79-.44-2.01-1.22-1.22-4.67,4.74-10.43,8.31-15.78,12.22-5.63,4.11-10.3,8.88-15.12,13.9-11.02,11.47-21.96,23.03-32.98,34.49-21,21.84-42.34,43.45-65.39,63.17-11.18,9.56-22.76,18.65-34.86,27.01-12.04,8.32-24.64,15.58-37.49,22.55-27.27,14.81-56.51,26.59-87.25,31.63-31.47,5.16-63.3,2.21-93.73-7.02-3.74-1.13-7.45-2.35-11.15-3.61-1.05-.36-1.5,1.3-.46,1.66h0Z"/><g class="cls-64"><path class="cls-68" d="m52.95,2.56v138.5c10.03,9.78,21.73,17.92,34.36,23.89,32.85,15.54,71.09,17.41,106.63,9.85,35.54-7.56,68.65-24.07,99.12-43.86,42.43-27.55,81.7-62.25,130.16-76.76,23.71-7.1,48.99-9.12,71.65-19.07,15.05-6.61,29.16-18.25,36.41-32.55H52.95Z"/><path class="cls-65" d="m50.45,2.56c0,6.95,0,13.89,0,20.84s0,31,0,46.5v63.64c0,2.43-.22,4.97,0,7.38.13,1.41.93,2.11,1.92,3.05,2.69,2.56,5.49,4.99,8.4,7.3,5.65,4.5,11.64,8.56,17.96,12.08,12.92,7.18,27.09,12.14,41.57,15.02,29.28,5.82,59.71,3.44,88.33-4.63,29.2-8.23,56.58-22.09,82.1-38.33,24.49-15.58,47.4-33.48,71.86-49.11,12.12-7.75,24.63-14.95,37.75-20.87s27.53-10.32,41.97-13.51c28.3-6.25,58.72-10.84,79.86-32.62,4.46-4.59,8.32-9.79,11.26-15.48.86-1.66-.19-3.76-2.16-3.76H72.36C66.17.06,59.96-.06,53.76.06c-.27,0-.54,0-.81,0-3.22,0-3.22,5,0,5h458.91c6.15,0,12.47.43,18.6,0,.27-.02.54,0,.81,0l-2.16-3.76c-7.26,14.09-20.21,24.69-34.48,31.19-16.4,7.47-34.47,10.43-51.95,14.24s-33.45,8.88-49.23,16.41-29.37,16-43.24,25.3c-28.75,19.29-56.08,40.66-86.62,57.15s-65.3,29.07-100.89,30.79c-34.79,1.69-70.76-6.67-98.39-28.65-3.34-2.65-6.53-5.48-9.59-8.45l.73,1.77V2.56c0-3.22-5-3.22-5,0Z"/></g><circle class="cls-28" cx="135.96" cy="56.02" r="1.21"/><path class="cls-18" d="m150.03,56.02c0,.67-.54,1.21-1.21,1.21s-1.21-.54-1.21-1.21.54-1.21,1.21-1.21,1.21.54,1.21,1.21Z"/><path class="cls-47" d="m162.88,56.02c0,.67-.54,1.21-1.21,1.21s-1.21-.54-1.21-1.21.54-1.21,1.21-1.21,1.21.54,1.21,1.21Z"/><circle class="cls-60" cx="174.52" cy="56.02" r="1.21"/><circle class="cls-44" cx="187.37" cy="56.02" r="1.21"/><path class="cls-58" d="m201.43,56.02c0,.67-.54,1.21-1.21,1.21s-1.21-.54-1.21-1.21.54-1.21,1.21-1.21,1.21.54,1.21,1.21Z"/><circle class="cls-22" cx="213.07" cy="56.02" r="1.21"/><path class="cls-48" d="m137.17,70.25c0,.67-.54,1.21-1.21,1.21s-1.21-.54-1.21-1.21.54-1.21,1.21-1.21,1.21.54,1.21,1.21Z"/><path class="cls-15" d="m150.03,70.25c0,.67-.54,1.21-1.21,1.21s-1.21-.54-1.21-1.21.54-1.21,1.21-1.21,1.21.54,1.21,1.21Z"/><path class="cls-57" d="m162.88,70.25c0,.67-.54,1.21-1.21,1.21s-1.21-.54-1.21-1.21.54-1.21,1.21-1.21,1.21.54,1.21,1.21Z"/><path class="cls-3" d="m175.73,70.25c0,.67-.54,1.21-1.21,1.21s-1.21-.54-1.21-1.21.54-1.21,1.21-1.21,1.21.54,1.21,1.21Z"/><path class="cls-36" d="m188.58,70.25c0,.67-.54,1.21-1.21,1.21s-1.21-.54-1.21-1.21.54-1.21,1.21-1.21,1.21.54,1.21,1.21Z"/><path class="cls-38" d="m201.43,70.25c0,.67-.54,1.21-1.21,1.21s-1.21-.54-1.21-1.21.54-1.21,1.21-1.21,1.21.54,1.21,1.21Z"/><path class="cls-9" d="m214.28,70.25c0,.67-.54,1.21-1.21,1.21s-1.21-.54-1.21-1.21.54-1.21,1.21-1.21,1.21.54,1.21,1.21Z"/><circle class="cls-1" cx="135.96" cy="84.47" r="1.21"/><path class="cls-27" d="m150.03,84.47c0,.67-.54,1.21-1.21,1.21s-1.21-.54-1.21-1.21.54-1.21,1.21-1.21,1.21.54,1.21,1.21Z"/><path class="cls-53" d="m162.88,84.47c0,.67-.54,1.21-1.21,1.21s-1.21-.54-1.21-1.21.54-1.21,1.21-1.21,1.21.54,1.21,1.21Z"/><circle class="cls-14" cx="174.52" cy="84.47" r="1.21"/><circle class="cls-16" cx="187.37" cy="84.47" r="1.21"/><path class="cls-30" d="m201.43,84.47c0,.67-.54,1.21-1.21,1.21s-1.21-.54-1.21-1.21.54-1.21,1.21-1.21,1.21.54,1.21,1.21Z"/><circle class="cls-51" cx="213.07" cy="84.47" r="1.21"/><path class="cls-49" d="m137.17,98.69c0,.67-.54,1.21-1.21,1.21s-1.21-.54-1.21-1.21.54-1.21,1.21-1.21,1.21.54,1.21,1.21Z"/><path class="cls-12" d="m150.03,98.69c0,.67-.54,1.21-1.21,1.21s-1.21-.54-1.21-1.21.54-1.21,1.21-1.21,1.21.54,1.21,1.21Z"/><path class="cls-42" d="m162.88,98.69c0,.67-.54,1.21-1.21,1.21s-1.21-.54-1.21-1.21.54-1.21,1.21-1.21,1.21.54,1.21,1.21Z"/><path class="cls-24" d="m175.73,98.69c0,.67-.54,1.21-1.21,1.21s-1.21-.54-1.21-1.21.54-1.21,1.21-1.21,1.21.54,1.21,1.21Z"/><path class="cls-62" d="m188.58,98.69c0,.67-.54,1.21-1.21,1.21s-1.21-.54-1.21-1.21.54-1.21,1.21-1.21,1.21.54,1.21,1.21Z"/><path class="cls-8" d="m201.43,98.69c0,.67-.54,1.21-1.21,1.21s-1.21-.54-1.21-1.21.54-1.21,1.21-1.21,1.21.54,1.21,1.21Z"/><path class="cls-32" d="m214.28,98.69c0,.67-.54,1.21-1.21,1.21s-1.21-.54-1.21-1.21.54-1.21,1.21-1.21,1.21.54,1.21,1.21Z"/><circle class="cls-23" cx="135.96" cy="112.91" r="1.21"/><path class="cls-45" d="m150.03,112.91c0,.67-.54,1.21-1.21,1.21s-1.21-.54-1.21-1.21.54-1.21,1.21-1.21,1.21.54,1.21,1.21Z"/><path class="cls-21" d="m162.88,112.91c0,.67-.54,1.21-1.21,1.21s-1.21-.54-1.21-1.21.54-1.21,1.21-1.21,1.21.54,1.21,1.21Z"/><circle class="cls-31" cx="174.52" cy="112.91" r="1.21"/><circle class="cls-5" cx="187.37" cy="112.91" r="1.21"/><path class="cls-55" d="m201.43,112.91c0,.67-.54,1.21-1.21,1.21s-1.21-.54-1.21-1.21.54-1.21,1.21-1.21,1.21.54,1.21,1.21Z"/><circle class="cls-19" cx="213.07" cy="112.91" r="1.21"/><circle class="cls-7" cx="135.96" cy="127.13" r="1.21"/><path class="cls-11" d="m150.03,127.13c0,.67-.54,1.21-1.21,1.21s-1.21-.54-1.21-1.21.54-1.21,1.21-1.21,1.21.54,1.21,1.21Z"/><path class="cls-10" d="m162.88,127.13c0,.67-.54,1.21-1.21,1.21s-1.21-.54-1.21-1.21.54-1.21,1.21-1.21,1.21.54,1.21,1.21Z"/><circle class="cls-13" cx="174.52" cy="127.13" r="1.21"/><circle class="cls-6" cx="187.37" cy="127.13" r="1.21"/><path class="cls-56" d="m201.43,127.13c0,.67-.54,1.21-1.21,1.21s-1.21-.54-1.21-1.21.54-1.21,1.21-1.21,1.21.54,1.21,1.21Z"/><circle class="cls-37" cx="213.07" cy="127.13" r="1.21"/><path class="cls-54" d="m137.17,141.35c0,.67-.54,1.21-1.21,1.21s-1.21-.54-1.21-1.21.54-1.21,1.21-1.21,1.21.54,1.21,1.21Z"/><path class="cls-4" d="m150.03,141.35c0,.67-.54,1.21-1.21,1.21s-1.21-.54-1.21-1.21.54-1.21,1.21-1.21,1.21.54,1.21,1.21Z"/><path class="cls-25" d="m162.88,141.35c0,.67-.54,1.21-1.21,1.21s-1.21-.54-1.21-1.21.54-1.21,1.21-1.21,1.21.54,1.21,1.21Z"/><path class="cls-20" d="m175.73,141.35c0,.67-.54,1.21-1.21,1.21s-1.21-.54-1.21-1.21.54-1.21,1.21-1.21,1.21.54,1.21,1.21Z"/><path class="cls-35" d="m188.58,141.35c0,.67-.54,1.21-1.21,1.21s-1.21-.54-1.21-1.21.54-1.21,1.21-1.21,1.21.54,1.21,1.21Z"/><path class="cls-40" d="m201.43,141.35c0,.67-.54,1.21-1.21,1.21s-1.21-.54-1.21-1.21.54-1.21,1.21-1.21,1.21.54,1.21,1.21Z"/><path class="cls-59" d="m214.28,141.35c0,.67-.54,1.21-1.21,1.21s-1.21-.54-1.21-1.21.54-1.21,1.21-1.21,1.21.54,1.21,1.21Z"/><circle class="cls-2" cx="135.96" cy="155.57" r="1.21"/><path class="cls-33" d="m150.03,155.57c0,.67-.54,1.21-1.21,1.21s-1.21-.54-1.21-1.21.54-1.21,1.21-1.21,1.21.54,1.21,1.21Z"/><path class="cls-17" d="m162.88,155.57c0,.67-.54,1.21-1.21,1.21s-1.21-.54-1.21-1.21.54-1.21,1.21-1.21,1.21.54,1.21,1.21Z"/><circle class="cls-61" cx="174.52" cy="155.57" r="1.21"/><circle class="cls-50" cx="187.37" cy="155.57" r="1.21"/><path class="cls-34" d="m201.43,155.57c0,.67-.54,1.21-1.21,1.21s-1.21-.54-1.21-1.21.54-1.21,1.21-1.21,1.21.54,1.21,1.21Z"/><circle class="cls-52" cx="213.07" cy="155.57" r="1.21"/><circle class="cls-39" cx="113.34" cy="207.54" r="2.67"/><circle class="cls-29" cx="86.48" cy="47.86" r="2.3"/><circle class="cls-41" cx="485.24" cy="124.54" r="2.3"/><rect class="cls-43" x="279" y="166.67" width="2.74" height="9.23"/><rect class="cls-46" x="279" y="166.67" width="2.74" height="9.23" transform="translate(451.65 -109.09) rotate(90)"/><line class="cls-26" x1="334.1" y1="35.93" x2="296.34" y2="73.69"/></g></svg>