<?xml version="1.0" encoding="UTF-8"?><svg id="Layer_2" xmlns="http://www.w3.org/2000/svg" xmlns:xlink="http://www.w3.org/1999/xlink" viewBox="0 0 616.98 289.36"><defs><style>.cls-1{stroke:url(#linear-gradient-20);}.cls-1,.cls-2,.cls-3,.cls-4,.cls-5,.cls-6,.cls-7,.cls-8,.cls-9,.cls-10,.cls-11,.cls-12,.cls-13,.cls-14,.cls-15,.cls-16,.cls-17,.cls-18,.cls-19,.cls-20,.cls-21,.cls-22,.cls-23,.cls-24,.cls-25,.cls-26,.cls-27,.cls-28,.cls-29,.cls-30,.cls-31,.cls-32,.cls-33,.cls-34,.cls-35,.cls-36,.cls-37,.cls-38,.cls-39,.cls-40,.cls-41,.cls-42,.cls-43,.cls-44,.cls-45,.cls-46,.cls-47,.cls-48,.cls-49,.cls-50,.cls-51,.cls-52,.cls-53,.cls-54,.cls-55,.cls-56,.cls-57,.cls-58,.cls-59,.cls-60,.cls-61,.cls-62{stroke-miterlimit:10;}.cls-1,.cls-3,.cls-4,.cls-5,.cls-6,.cls-7,.cls-8,.cls-9,.cls-12,.cls-13,.cls-14,.cls-15,.cls-16,.cls-17,.cls-18,.cls-19,.cls-20,.cls-21,.cls-22,.cls-25,.cls-28,.cls-29,.cls-30,.cls-31,.cls-32,.cls-33,.cls-34,.cls-35,.cls-36,.cls-37,.cls-38,.cls-39,.cls-40,.cls-41,.cls-42,.cls-44,.cls-45,.cls-46,.cls-48,.cls-49,.cls-50,.cls-51,.cls-53,.cls-54,.cls-57,.cls-58,.cls-59,.cls-60,.cls-61,.cls-62{fill:#ea227a;}.cls-2{stroke:url(#linear-gradient-24);}.cls-2,.cls-10,.cls-11,.cls-23,.cls-24,.cls-26,.cls-43,.cls-52,.cls-55,.cls-56{fill:#fff;}.cls-63{fill:url(#linear-gradient-2);}.cls-3{stroke:url(#linear-gradient-16);}.cls-4{stroke:url(#linear-gradient-49);}.cls-5{stroke:url(#linear-gradient-38);}.cls-6{stroke:url(#linear-gradient-45);}.cls-7{stroke:url(#linear-gradient-41);}.cls-8{stroke:url(#linear-gradient-32);}.cls-9{stroke:url(#linear-gradient-19);}.cls-10{stroke:url(#linear-gradient-15);}.cls-11{stroke:url(#linear-gradient-55);}.cls-12{stroke:url(#linear-gradient-43);}.cls-13{stroke:url(#linear-gradient-42);}.cls-64{fill:url(#linear-gradient-6);}.cls-14{stroke:url(#linear-gradient-28);}.cls-15{stroke:url(#linear-gradient-23);}.cls-16{stroke:url(#linear-gradient-14);}.cls-17{stroke:url(#linear-gradient-57);}.cls-18{stroke:url(#linear-gradient-22);}.cls-19{stroke:url(#linear-gradient-40);}.cls-20{stroke:url(#linear-gradient-51);}.cls-21{stroke:url(#linear-gradient-10);}.cls-22{stroke:url(#linear-gradient-36);}.cls-23{stroke:url(#linear-gradient-46);}.cls-24{stroke:url(#linear-gradient-67);}.cls-25{stroke:url(#linear-gradient-34);}.cls-26{stroke:url(#linear-gradient-33);}.cls-27{stroke:url(#linear-gradient-7);}.cls-27,.cls-47{fill:none;}.cls-28{stroke:url(#linear-gradient-30);}.cls-29{stroke:url(#linear-gradient-50);}.cls-30{stroke:url(#linear-gradient-21);}.cls-31{stroke:url(#linear-gradient-62);}.cls-32{stroke:url(#linear-gradient-63);}.cls-33{stroke:url(#linear-gradient-25);}.cls-34{stroke:url(#linear-gradient-37);}.cls-35{stroke:url(#linear-gradient-44);}.cls-36{stroke:url(#linear-gradient-60);}.cls-37{stroke:url(#linear-gradient-52);}.cls-38{stroke:url(#linear-gradient-56);}.cls-65{fill:url(#linear-gradient-5);}.cls-39{stroke:url(#linear-gradient-17);}.cls-40{stroke:url(#linear-gradient-47);}.cls-41{stroke:url(#linear-gradient-18);}.cls-42{stroke:url(#linear-gradient-13);}.cls-43{stroke:url(#linear-gradient-64);}.cls-44{stroke:url(#linear-gradient-29);}.cls-45{stroke:url(#linear-gradient-53);}.cls-46{stroke:url(#linear-gradient-65);}.cls-47{stroke:url(#linear-gradient-68);}.cls-48{stroke:url(#linear-gradient-35);}.cls-49{stroke:url(#linear-gradient-8);}.cls-50{stroke:url(#linear-gradient-31);}.cls-51{stroke:url(#linear-gradient-27);}.cls-52{stroke:url(#linear-gradient-66);}.cls-53{stroke:url(#linear-gradient-59);}.cls-54{stroke:url(#linear-gradient-26);}.cls-66{fill:url(#linear-gradient-3);}.cls-55{stroke:url(#linear-gradient-12);}.cls-56{stroke:url(#linear-gradient-58);}.cls-67{fill:url(#linear-gradient);}.cls-57{stroke:url(#linear-gradient-61);}.cls-58{stroke:url(#linear-gradient-48);}.cls-59{stroke:url(#linear-gradient-39);}.cls-60{stroke:url(#linear-gradient-11);}.cls-61{stroke:url(#linear-gradient-54);}.cls-68{fill:url(#linear-gradient-4);}.cls-62{stroke:url(#linear-gradient-9);}</style><linearGradient id="linear-gradient" x1="599.8" y1="200.83" x2="552.23" y2="284.46" gradientUnits="userSpaceOnUse"><stop offset=".34" stop-color="#b8219d"/><stop offset=".49" stop-color="#cc4db3"/><stop offset=".65" stop-color="#e078c8"/><stop offset=".78" stop-color="#ed93d5"/><stop offset=".85" stop-color="#f29dda"/></linearGradient><linearGradient id="linear-gradient-2" x1="505.1" y1="-59.96" x2="282.26" y2="331.79" xlink:href="#linear-gradient"/><linearGradient id="linear-gradient-3" x1="850.05" y1="-390.18" x2="251.4" y2="662.23" gradientTransform="translate(801.81 523.48) rotate(-180)" gradientUnits="userSpaceOnUse"><stop offset="0" stop-color="#000" stop-opacity="0"/><stop offset=".2" stop-color="#010003" stop-opacity=".03"/><stop offset=".39" stop-color="#06000e" stop-opacity=".13"/><stop offset=".56" stop-color="#0e0020" stop-opacity=".29"/><stop offset=".74" stop-color="#19003a" stop-opacity=".51"/><stop offset=".9" stop-color="#27005b" stop-opacity=".8"/><stop offset="1" stop-color="#310073"/></linearGradient><linearGradient id="linear-gradient-4" x1="2.37" y1="151.19" x2="614.87" y2="151.19" xlink:href="#linear-gradient"/><linearGradient id="linear-gradient-5" x1="780.96" y1="-313.15" x2="272.02" y2="581.56" xlink:href="#linear-gradient-3"/><linearGradient id="linear-gradient-6" x1="50.45" y1="173.25" x2="615.21" y2="173.25" xlink:href="#linear-gradient"/><linearGradient id="linear-gradient-7" x1="443.8" y1="36.79" x2="505.98" y2="36.79" gradientTransform="translate(235.6 -375.05) rotate(55.41)" xlink:href="#linear-gradient"/><linearGradient id="linear-gradient-8" x1="428.32" y1="131.35" x2="431.75" y2="131.35" xlink:href="#linear-gradient"/><linearGradient id="linear-gradient-9" x1="441.18" y1="131.35" x2="444.6" y2="131.35" xlink:href="#linear-gradient"/><linearGradient id="linear-gradient-10" x1="454.03" y1="131.35" x2="457.45" y2="131.35" xlink:href="#linear-gradient"/><linearGradient id="linear-gradient-11" x1="466.88" y1="131.35" x2="470.31" y2="131.35" xlink:href="#linear-gradient"/><linearGradient id="linear-gradient-12" x1="479.73" y1="131.35" x2="483.16" y2="131.35" xlink:href="#linear-gradient"/><linearGradient id="linear-gradient-13" x1="492.58" y1="131.35" x2="496.01" y2="131.35" xlink:href="#linear-gradient"/><linearGradient id="linear-gradient-14" x1="505.44" y1="131.35" x2="508.86" y2="131.35" xlink:href="#linear-gradient"/><linearGradient id="linear-gradient-15" x1="428.32" y1="145.57" x2="431.75" y2="145.57" xlink:href="#linear-gradient"/><linearGradient id="linear-gradient-16" x1="441.18" y1="145.57" x2="444.6" y2="145.57" xlink:href="#linear-gradient"/><linearGradient id="linear-gradient-17" x1="454.03" y1="145.57" x2="457.45" y2="145.57" xlink:href="#linear-gradient"/><linearGradient id="linear-gradient-18" x1="466.88" y1="145.57" x2="470.31" y2="145.57" xlink:href="#linear-gradient"/><linearGradient id="linear-gradient-19" x1="479.73" y1="145.57" x2="483.16" y2="145.57" xlink:href="#linear-gradient"/><linearGradient id="linear-gradient-20" x1="492.58" y1="145.57" x2="496.01" y2="145.57" xlink:href="#linear-gradient"/><linearGradient id="linear-gradient-21" x1="505.44" y1="145.57" x2="508.86" y2="145.57" xlink:href="#linear-gradient"/><linearGradient id="linear-gradient-22" x1="428.32" y1="159.79" x2="431.75" y2="159.79" xlink:href="#linear-gradient"/><linearGradient id="linear-gradient-23" x1="441.18" y1="159.79" x2="444.6" y2="159.79" xlink:href="#linear-gradient"/><linearGradient id="linear-gradient-24" x1="454.03" y1="159.79" x2="457.45" y2="159.79" xlink:href="#linear-gradient"/><linearGradient id="linear-gradient-25" x1="466.88" y1="159.79" x2="470.31" y2="159.79" xlink:href="#linear-gradient"/><linearGradient id="linear-gradient-26" x1="479.73" y1="159.79" x2="483.16" y2="159.79" xlink:href="#linear-gradient"/><linearGradient id="linear-gradient-27" x1="492.58" y1="159.79" x2="496.01" y2="159.79" xlink:href="#linear-gradient"/><linearGradient id="linear-gradient-28" x1="505.44" y1="159.79" x2="508.86" y2="159.79" xlink:href="#linear-gradient"/><linearGradient id="linear-gradient-29" x1="428.32" y1="174.01" x2="431.75" y2="174.01" xlink:href="#linear-gradient"/><linearGradient id="linear-gradient-30" x1="441.18" y1="174.01" x2="444.6" y2="174.01" xlink:href="#linear-gradient"/><linearGradient id="linear-gradient-31" x1="454.03" y1="174.01" x2="457.45" y2="174.01" xlink:href="#linear-gradient"/><linearGradient id="linear-gradient-32" x1="466.88" y1="174.01" x2="470.31" y2="174.01" xlink:href="#linear-gradient"/><linearGradient id="linear-gradient-33" x1="479.73" y1="174.01" x2="483.16" y2="174.01" xlink:href="#linear-gradient"/><linearGradient id="linear-gradient-34" x1="492.58" y1="174.01" x2="496.01" y2="174.01" xlink:href="#linear-gradient"/><linearGradient id="linear-gradient-35" x1="505.44" y1="174.01" x2="508.86" y2="174.01" xlink:href="#linear-gradient"/><linearGradient id="linear-gradient-36" x1="428.32" y1="188.24" x2="431.75" y2="188.24" xlink:href="#linear-gradient"/><linearGradient id="linear-gradient-37" x1="441.18" y1="188.24" x2="444.6" y2="188.24" xlink:href="#linear-gradient"/><linearGradient id="linear-gradient-38" x1="454.03" y1="188.24" x2="457.45" y2="188.24" xlink:href="#linear-gradient"/><linearGradient id="linear-gradient-39" x1="466.88" y1="188.24" x2="470.31" y2="188.24" xlink:href="#linear-gradient"/><linearGradient id="linear-gradient-40" x1="479.73" y1="188.24" x2="483.16" y2="188.24" xlink:href="#linear-gradient"/><linearGradient id="linear-gradient-41" x1="492.58" y1="188.24" x2="496.01" y2="188.24" xlink:href="#linear-gradient"/><linearGradient id="linear-gradient-42" x1="505.44" y1="188.24" x2="508.86" y2="188.24" xlink:href="#linear-gradient"/><linearGradient id="linear-gradient-43" x1="428.32" y1="202.46" x2="431.75" y2="202.46" xlink:href="#linear-gradient"/><linearGradient id="linear-gradient-44" x1="441.18" y1="202.46" x2="444.6" y2="202.46" xlink:href="#linear-gradient"/><linearGradient id="linear-gradient-45" x1="454.03" y1="202.46" x2="457.45" y2="202.46" xlink:href="#linear-gradient"/><linearGradient id="linear-gradient-46" x1="466.88" y1="202.46" x2="470.31" y2="202.46" xlink:href="#linear-gradient"/><linearGradient id="linear-gradient-47" x1="479.73" y1="202.46" x2="483.16" y2="202.46" xlink:href="#linear-gradient"/><linearGradient id="linear-gradient-48" x1="492.58" y1="202.46" x2="496.01" y2="202.46" xlink:href="#linear-gradient"/><linearGradient id="linear-gradient-49" x1="505.44" y1="202.46" x2="508.86" y2="202.46" xlink:href="#linear-gradient"/><linearGradient id="linear-gradient-50" x1="428.32" y1="216.68" x2="431.75" y2="216.68" xlink:href="#linear-gradient"/><linearGradient id="linear-gradient-51" x1="441.18" y1="216.68" x2="444.6" y2="216.68" xlink:href="#linear-gradient"/><linearGradient id="linear-gradient-52" x1="454.03" y1="216.68" x2="457.45" y2="216.68" xlink:href="#linear-gradient"/><linearGradient id="linear-gradient-53" x1="466.88" y1="216.68" x2="470.31" y2="216.68" xlink:href="#linear-gradient"/><linearGradient id="linear-gradient-54" x1="479.73" y1="216.68" x2="483.16" y2="216.68" xlink:href="#linear-gradient"/><linearGradient id="linear-gradient-55" x1="492.58" y1="216.68" x2="496.01" y2="216.68" xlink:href="#linear-gradient"/><linearGradient id="linear-gradient-56" x1="505.44" y1="216.68" x2="508.86" y2="216.68" xlink:href="#linear-gradient"/><linearGradient id="linear-gradient-57" x1="428.32" y1="230.9" x2="431.75" y2="230.9" xlink:href="#linear-gradient"/><linearGradient id="linear-gradient-58" x1="441.18" y1="230.9" x2="444.6" y2="230.9" xlink:href="#linear-gradient"/><linearGradient id="linear-gradient-59" x1="454.03" y1="230.9" x2="457.45" y2="230.9" xlink:href="#linear-gradient"/><linearGradient id="linear-gradient-60" x1="466.88" y1="230.9" x2="470.31" y2="230.9" xlink:href="#linear-gradient"/><linearGradient id="linear-gradient-61" x1="479.73" y1="230.9" x2="483.16" y2="230.9" xlink:href="#linear-gradient"/><linearGradient id="linear-gradient-62" x1="492.58" y1="230.9" x2="496.01" y2="230.9" xlink:href="#linear-gradient"/><linearGradient id="linear-gradient-63" x1="505.44" y1="230.9" x2="508.86" y2="230.9" xlink:href="#linear-gradient"/><linearGradient id="linear-gradient-64" x1="328.33" y1="248.2" x2="333.93" y2="248.2" xlink:href="#linear-gradient"/><linearGradient id="linear-gradient-65" x1="566.35" y1="152.64" x2="571.95" y2="152.64" xlink:href="#linear-gradient"/><linearGradient id="linear-gradient-66" x1="389.51" y1="223.13" x2="393.25" y2="223.13" xlink:href="#linear-gradient"/><linearGradient id="linear-gradient-67" x1="386.26" y1="223.13" x2="396.49" y2="223.13" gradientTransform="translate(168.25 614.5) rotate(-90)" xlink:href="#linear-gradient"/><linearGradient id="linear-gradient-68" x1="361.29" y1="152.64" x2="400.61" y2="152.64" xlink:href="#linear-gradient"/></defs><g id="OBJECTS"><path class="cls-67" d="m607.19,204.87c-8.5,9.78-16.45,20.02-24.57,30.12-3.94,4.9-7.78,10.01-12.19,14.5-4.4,4.47-8.6,9.13-12.72,13.86-4.65,5.34-9.18,10.79-13.77,16.19-.52.61.36,1.5.88.88,8.13-9.58,16.12-19.3,24.84-28.36s16.35-19.37,24.26-29.24c4.62-5.77,9.3-11.49,14.15-17.07.53-.6-.35-1.49-.88-.88h0Z"/><path class="cls-63" d="m192.1,280.09c2.14-22.77,8.13-45.1,17.67-65.89,4.78-10.41,10.41-20.42,16.8-29.92,3.36-4.99,6.93-9.84,10.69-14.54,1.85-2.31,3.91-4.42,5.74-6.75s3.6-4.72,5.62-6.9c13.91-15.02,28.63-29.58,44.36-42.69,7.64-6.36,15.62-12.47,24.31-17.34,3.81-2.14,7.78-4.29,11.78-6.34,5.7-2.93,11.42-5.81,17.15-8.69s11.76-5.33,17.76-7.79c15.32-6.29,30.74-12.45,46.52-17.49,11.74-3.75,23.7-6.76,35.6-9.93,8.5-2.26,16.99-4.59,25.45-7.01s17.48-5.54,26.09-8.75,17.11-6.58,25.86-9.29c6.03-1.87,12.26-3.22,18.35-4.91,19.46-5.42,38.79-11.63,58.94-14,3.56-.42,7.19-.76,10.78-.51.8.06.8-1.19,0-1.25-8.22-.58-16.8,1.2-24.83,2.75-9.64,1.86-19.08,4.37-28.51,7.07-15.96,4.56-32.19,8.31-47.78,14.03-8.97,3.29-17.85,6.79-26.89,9.87s-18.12,5.45-27.23,7.94c-12.9,3.53-25.91,6.71-38.74,10.5-14.09,4.16-27.85,9.3-41.5,14.73-5.3,2.11-10.59,4.27-15.87,6.45-3.43,1.42-6.95,2.71-10.29,4.33-4.64,2.26-9.24,4.63-13.84,6.96-11.66,5.91-23.15,11.82-33.69,19.65-16.87,12.53-32.02,27.35-46.61,42.42-3.37,3.48-6.9,6.9-9.99,10.64-3.76,4.55-7.62,9.06-11.24,13.71-7.14,9.16-13.57,18.88-19.16,29.06-10.87,19.84-18.54,41.43-22.41,63.73-.93,5.35-1.63,10.73-2.14,16.14-.08.8,1.18.8,1.25,0h0Z"/><path class="cls-66" d="m614.37,286.8V15.68c-14.41,1.36-28.74,3.56-42.85,6.56-67.19,14.3-129.78,45.52-187.4,82.92-80.22,52.08-154.46,117.69-246.08,145.13-44.83,13.43-92.62,17.24-135.47,36.06"/><path class="cls-68" d="m616.87,286.8V26.77c0-3.51.24-7.12,0-10.62-.01-.15,0-.31,0-.46,0-1.26-1.15-2.63-2.5-2.5-45.31,4.33-89.24,17.04-130.94,35.05-41,17.71-79.6,40.43-116.57,65.37-35.41,23.89-69.61,49.54-105.37,72.91-35.41,23.14-72.59,44.16-112.79,57.76-43.24,14.63-89.35,18.44-132.34,33.92-5.08,1.83-10.1,3.84-15.05,6-2.94,1.28-.4,5.59,2.52,4.32,42.08-18.35,88.43-22.3,132.2-35.02,40.4-11.74,78.04-31.2,113.58-53.44s69.93-47.76,104.74-71.85,73.46-48.43,113.23-67.32c40.76-19.36,84.06-34.06,128.81-40.56,5.97-.87,11.97-1.57,17.98-2.14l-2.5-2.5v260.03c0,3.51-.24,7.12,0,10.62.01.15,0,.31,0,.46,0,3.22,5,3.22,5,0h0Z"/><path class="cls-65" d="m614.37,60.6c-29.37-2.48-59.32-.23-88.16,5.91-57.03,12.14-110.16,38.63-159.06,70.38-68.09,44.2-131.1,99.89-208.87,123.18-34.75,10.41-71.59,14.01-105.42,26.73h561.51V60.6Z"/><path class="cls-64" d="m614.37,58.1c-42.41-3.5-85.04,2.75-125.42,15.84-38.12,12.36-74.19,30.47-108.27,51.43-33.1,20.36-64.23,43.67-96.2,65.7-31.38,21.62-63.85,42.29-99.23,56.78-18.56,7.6-37.74,13-57.31,17.32-20.41,4.51-41.04,8.23-61.08,14.27-4.94,1.49-9.83,3.13-14.67,4.94-2.53.94-2.31,4.91.66,4.91h538.71c7.27,0,14.56.14,21.84,0,.32,0,.64,0,.95,0,1.35,0,2.5-1.15,2.5-2.5V69.8c0-2.91.2-5.91,0-8.82,0-.13,0-.26,0-.38,0-3.22-5-3.22-5,0v216.99c0,2.76-.51,6.09,0,8.82.02.12,0,.26,0,.38l2.5-2.5H75.66c-7.2,0-14.66-.57-21.84,0-.31.02-.64,0-.95,0l.66,4.91c38.7-14.43,80.49-17.47,119.39-31.3,35.81-12.74,68.77-32.07,100.26-53.12,31.81-21.26,62.37-44.35,94.44-65.22,33.73-21.95,69.32-41.41,107.13-55.41s81.26-23.07,123.46-21.95c5.4.14,10.79.45,16.17.89,3.21.26,3.19-4.74,0-5Z"/><circle class="cls-27" cx="474.89" cy="36.79" r="30.59" transform="translate(175.02 406.86) rotate(-55.41)"/><circle class="cls-49" cx="430.04" cy="131.35" r="1.21"/><circle class="cls-62" cx="442.89" cy="131.35" r="1.21"/><path class="cls-21" d="m456.95,131.35c0,.67-.54,1.21-1.21,1.21s-1.21-.54-1.21-1.21.54-1.21,1.21-1.21,1.21.54,1.21,1.21Z"/><path class="cls-60" d="m469.81,131.35c0,.67-.54,1.21-1.21,1.21s-1.21-.54-1.21-1.21.54-1.21,1.21-1.21,1.21.54,1.21,1.21Z"/><path class="cls-55" d="m482.66,131.35c0,.67-.54,1.21-1.21,1.21s-1.21-.54-1.21-1.21.54-1.21,1.21-1.21,1.21.54,1.21,1.21Z"/><circle class="cls-42" cx="494.3" cy="131.35" r="1.21"/><path class="cls-16" d="m508.36,131.35c0,.67-.54,1.21-1.21,1.21s-1.21-.54-1.21-1.21.54-1.21,1.21-1.21,1.21.54,1.21,1.21Z"/><circle class="cls-10" cx="430.04" cy="145.57" r="1.21"/><circle class="cls-3" cx="442.89" cy="145.57" r="1.21"/><path class="cls-39" d="m456.95,145.57c0,.67-.54,1.21-1.21,1.21s-1.21-.54-1.21-1.21.54-1.21,1.21-1.21,1.21.54,1.21,1.21Z"/><path class="cls-41" d="m469.81,145.57c0,.67-.54,1.21-1.21,1.21s-1.21-.54-1.21-1.21.54-1.21,1.21-1.21,1.21.54,1.21,1.21Z"/><path class="cls-9" d="m482.66,145.57c0,.67-.54,1.21-1.21,1.21s-1.21-.54-1.21-1.21.54-1.21,1.21-1.21,1.21.54,1.21,1.21Z"/><circle class="cls-1" cx="494.3" cy="145.57" r="1.21"/><path class="cls-30" d="m508.36,145.57c0,.67-.54,1.21-1.21,1.21s-1.21-.54-1.21-1.21.54-1.21,1.21-1.21,1.21.54,1.21,1.21Z"/><path class="cls-18" d="m431.25,159.79c0,.67-.54,1.21-1.21,1.21s-1.21-.54-1.21-1.21.54-1.21,1.21-1.21,1.21.54,1.21,1.21Z"/><path class="cls-15" d="m444.1,159.79c0,.67-.54,1.21-1.21,1.21s-1.21-.54-1.21-1.21.54-1.21,1.21-1.21,1.21.54,1.21,1.21Z"/><path class="cls-2" d="m456.95,159.79c0,.67-.54,1.21-1.21,1.21s-1.21-.54-1.21-1.21.54-1.21,1.21-1.21,1.21.54,1.21,1.21Z"/><path class="cls-33" d="m469.81,159.79c0,.67-.54,1.21-1.21,1.21s-1.21-.54-1.21-1.21.54-1.21,1.21-1.21,1.21.54,1.21,1.21Z"/><path class="cls-54" d="m482.66,159.79c0,.67-.54,1.21-1.21,1.21s-1.21-.54-1.21-1.21.54-1.21,1.21-1.21,1.21.54,1.21,1.21Z"/><path class="cls-51" d="m495.51,159.79c0,.67-.54,1.21-1.21,1.21s-1.21-.54-1.21-1.21.54-1.21,1.21-1.21,1.21.54,1.21,1.21Z"/><path class="cls-14" d="m508.36,159.79c0,.67-.54,1.21-1.21,1.21s-1.21-.54-1.21-1.21.54-1.21,1.21-1.21,1.21.54,1.21,1.21Z"/><circle class="cls-44" cx="430.04" cy="174.01" r="1.21"/><circle class="cls-28" cx="442.89" cy="174.01" r="1.21"/><path class="cls-50" d="m456.95,174.01c0,.67-.54,1.21-1.21,1.21s-1.21-.54-1.21-1.21.54-1.21,1.21-1.21,1.21.54,1.21,1.21Z"/><path class="cls-8" d="m469.81,174.01c0,.67-.54,1.21-1.21,1.21s-1.21-.54-1.21-1.21.54-1.21,1.21-1.21,1.21.54,1.21,1.21Z"/><path class="cls-26" d="m482.66,174.01c0,.67-.54,1.21-1.21,1.21s-1.21-.54-1.21-1.21.54-1.21,1.21-1.21,1.21.54,1.21,1.21Z"/><circle class="cls-25" cx="494.3" cy="174.01" r="1.21"/><path class="cls-48" d="m508.36,174.01c0,.67-.54,1.21-1.21,1.21s-1.21-.54-1.21-1.21.54-1.21,1.21-1.21,1.21.54,1.21,1.21Z"/><path class="cls-22" d="m431.25,188.24c0,.67-.54,1.21-1.21,1.21s-1.21-.54-1.21-1.21.54-1.21,1.21-1.21,1.21.54,1.21,1.21Z"/><path class="cls-34" d="m444.1,188.24c0,.67-.54,1.21-1.21,1.21s-1.21-.54-1.21-1.21.54-1.21,1.21-1.21,1.21.54,1.21,1.21Z"/><path class="cls-5" d="m456.95,188.24c0,.67-.54,1.21-1.21,1.21s-1.21-.54-1.21-1.21.54-1.21,1.21-1.21,1.21.54,1.21,1.21Z"/><path class="cls-59" d="m469.81,188.24c0,.67-.54,1.21-1.21,1.21s-1.21-.54-1.21-1.21.54-1.21,1.21-1.21,1.21.54,1.21,1.21Z"/><path class="cls-19" d="m482.66,188.24c0,.67-.54,1.21-1.21,1.21s-1.21-.54-1.21-1.21.54-1.21,1.21-1.21,1.21.54,1.21,1.21Z"/><path class="cls-7" d="m495.51,188.24c0,.67-.54,1.21-1.21,1.21s-1.21-.54-1.21-1.21.54-1.21,1.21-1.21,1.21.54,1.21,1.21Z"/><path class="cls-13" d="m508.36,188.24c0,.67-.54,1.21-1.21,1.21s-1.21-.54-1.21-1.21.54-1.21,1.21-1.21,1.21.54,1.21,1.21Z"/><circle class="cls-12" cx="430.04" cy="202.46" r="1.21"/><circle class="cls-35" cx="442.89" cy="202.46" r="1.21"/><path class="cls-6" d="m456.95,202.46c0,.67-.54,1.21-1.21,1.21s-1.21-.54-1.21-1.21.54-1.21,1.21-1.21,1.21.54,1.21,1.21Z"/><path class="cls-23" d="m469.81,202.46c0,.67-.54,1.21-1.21,1.21s-1.21-.54-1.21-1.21.54-1.21,1.21-1.21,1.21.54,1.21,1.21Z"/><path class="cls-40" d="m482.66,202.46c0,.67-.54,1.21-1.21,1.21s-1.21-.54-1.21-1.21.54-1.21,1.21-1.21,1.21.54,1.21,1.21Z"/><circle class="cls-58" cx="494.3" cy="202.46" r="1.21"/><path class="cls-4" d="m508.36,202.46c0,.67-.54,1.21-1.21,1.21s-1.21-.54-1.21-1.21.54-1.21,1.21-1.21,1.21.54,1.21,1.21Z"/><circle class="cls-29" cx="430.04" cy="216.68" r="1.21"/><circle class="cls-20" cx="442.89" cy="216.68" r="1.21"/><path class="cls-37" d="m456.95,216.68c0,.67-.54,1.21-1.21,1.21s-1.21-.54-1.21-1.21.54-1.21,1.21-1.21,1.21.54,1.21,1.21Z"/><path class="cls-45" d="m469.81,216.68c0,.67-.54,1.21-1.21,1.21s-1.21-.54-1.21-1.21.54-1.21,1.21-1.21,1.21.54,1.21,1.21Z"/><path class="cls-61" d="m482.66,216.68c0,.67-.54,1.21-1.21,1.21s-1.21-.54-1.21-1.21.54-1.21,1.21-1.21,1.21.54,1.21,1.21Z"/><circle class="cls-11" cx="494.3" cy="216.68" r="1.21"/><path class="cls-38" d="m508.36,216.68c0,.67-.54,1.21-1.21,1.21s-1.21-.54-1.21-1.21.54-1.21,1.21-1.21,1.21.54,1.21,1.21Z"/><path class="cls-17" d="m431.25,230.9c0,.67-.54,1.21-1.21,1.21s-1.21-.54-1.21-1.21.54-1.21,1.21-1.21,1.21.54,1.21,1.21Z"/><path class="cls-56" d="m444.1,230.9c0,.67-.54,1.21-1.21,1.21s-1.21-.54-1.21-1.21.54-1.21,1.21-1.21,1.21.54,1.21,1.21Z"/><path class="cls-53" d="m456.95,230.9c0,.67-.54,1.21-1.21,1.21s-1.21-.54-1.21-1.21.54-1.21,1.21-1.21,1.21.54,1.21,1.21Z"/><path class="cls-36" d="m469.81,230.9c0,.67-.54,1.21-1.21,1.21s-1.21-.54-1.21-1.21.54-1.21,1.21-1.21,1.21.54,1.21,1.21Z"/><path class="cls-57" d="m482.66,230.9c0,.67-.54,1.21-1.21,1.21s-1.21-.54-1.21-1.21.54-1.21,1.21-1.21,1.21.54,1.21,1.21Z"/><path class="cls-31" d="m495.51,230.9c0,.67-.54,1.21-1.21,1.21s-1.21-.54-1.21-1.21.54-1.21,1.21-1.21,1.21.54,1.21,1.21Z"/><path class="cls-32" d="m508.36,230.9c0,.67-.54,1.21-1.21,1.21s-1.21-.54-1.21-1.21.54-1.21,1.21-1.21,1.21.54,1.21,1.21Z"/><circle class="cls-43" cx="331.13" cy="248.2" r="2.3"/><path class="cls-46" d="m571.45,152.64c0,1.27-1.03,2.3-2.3,2.3s-2.3-1.03-2.3-2.3,1.03-2.3,2.3-2.3,2.3,1.03,2.3,2.3Z"/><rect class="cls-52" x="390.01" y="218.51" width="2.74" height="9.23"/><rect class="cls-24" x="390.01" y="218.51" width="2.74" height="9.23" transform="translate(614.5 -168.25) rotate(90)"/><line class="cls-47" x1="400.26" y1="133.33" x2="361.64" y2="171.95"/></g></svg>